<?xml version="1.0" encoding="UTF-8" standalone="no"?>
<!DOCTYPE svg PUBLIC "-//W3C//DTD SVG 1.1//EN" "http://www.w3.org/Graphics/SVG/1.1/DTD/svg11.dtd">
<svg version="1.1" font-family="Liberation Sans,Arial, sans-serif" font-weight="800" viewBox="0 0 1070 886" xmlns="http://www.w3.org/2000/svg" xmlns:xlink="http://www.w3.org/1999/xlink">
  <title>Wikidata stamp</title>
  <metadata>
    <rdf:RDF xmlns:rdf="http://www.w3.org/1999/02/22-rdf-syntax-ns#">
      <cc:Work rdf:about="" xmlns:dc="http://purl.org/dc/elements/1.1/" xmlns:cc="http://creativecommons.org/ns#">
        <dc:title>Wikidata stamp</dc:title>
        <dc:format>image/svg+xml</dc:format>
        <dc:type rdf:resource="http://purl.org/dc/dcmitype/StillImage"/>
        <dc:source rdf:resource="https://commons.wikimedia.org/wiki/File:Wikidata_stamp.png"/>
        <dc:publisher>Wikimedia Commons</dc:publisher>
        <dc:attributionURL rdf:resource="https://commons.wikimedia.org/wiki/File:Wikidata_stamp.svg"/>
        <cc:license rdf:resource="https://creativecommons.org/publicdomain/zero/1.0/deed.en"/>
      </cc:Work>
    </rdf:RDF>
  </metadata>
 <defs>
  <path id="c" d="m-300 0a300 300 0 0 1 600 0"/>
  <path id="d" d="m300 0a300 300 0 0 1-600 0"/>
  <clipPath id="b" clip-rule="evenodd">
   <path d="M-600-500H600V500H-600V-500zm73 400H527v200H-527v-200z"/>
  </clipPath>
  <filter id="a">
   <feTurbulence baseFrequency="0.1 0.1" numOctaves="3" result="turb1" type="fractalNoise"/>
   <feComponentTransfer in="turb1" result="turb2">
    <feFuncA tableValues="0.0 1.0 1.0" type="discrete"/>
   </feComponentTransfer>
   <feComposite in="SourceGraphic" in2="turb2" operator="in"/>
  </filter>
 </defs>
 <circle transform="rotate(23.2 -811.56 1524.7)" r="256" clip-path="url(#b)" fill="none" filter="url(#a)" stroke="#484848" stroke-width="18"/>
 <circle transform="rotate(23.2 -811.56 1524.7)" r="426" clip-path="url(#b)" fill="none" filter="url(#a)" stroke="#484848" stroke-width="30"/>
 <rect transform="rotate(23.2 -811.56 1524.7)" x="-520" y="-100" width="1040" height="200" rx="10" fill="none" filter="url(#a)" stroke="#484848" stroke-width="18"/>
 <text transform="rotate(23.2 -811.56 1524.7)" y="53" filter="url(#a)" font-size="150" text-anchor="middle"><tspan fill="#990000">WI</tspan><tspan fill="#339966">KI</tspan><tspan fill="#006699">DA</tspan><tspan fill="#339966">TA</tspan></text>
 <switch>
  <g requiredFeatures="http://www.w3.org/TR/SVG11/feature#Text">
   <text transform="rotate(23.2 -811.56 1524.7)" fill="RGB(72,72,72)" filter="url(#a)" font-size="95" text-anchor="middle"><textPath startOffset="50%" xlink:href="#c">POWERED BY</textPath></text>
   <text transform="rotate(23.2 -811.56 1524.7)" fill="RGB(72,72,72)" filter="url(#a)" font-size="95" text-anchor="middle"><textPath startOffset="50%" xlink:href="#d">POWERED BY</textPath></text>
  </g>
  <g>
   <g filter="url(#a)" transform="matrix(0.9191353392552344 0.3939419095909511 -0.3939419095909511 0.9191353392552344 535.0167054793012 443.0018443851766)">
    <path id="PoweredByAbove" fill="#484848" stroke="none" d="M -269.68721975702 -216.51857810678 C -266.20414766321 -214.16138345791 -263.62973424201 -211.26157180537 -261.96397949342 -207.81914314916 C -260.29822474483 -204.37671449294 -259.71717187221 -200.66950489353 -260.22082087557 -196.69751435093 C -260.72446987892 -192.72552380832 -262.35421331137 -188.70346801159 -265.11005117292 -184.63134696074 L -274.20951581009 -171.18566424565 L -255.155062591 -158.29042293125 L -262.82461135662 -146.95763321425 L -316.95308834392 -183.58947799649 L -300.49605658583 -207.90695559263 C -296.11098124639 -214.38649412009 -291.24368266307 -218.36459486989 -285.89416083586 -219.84125784204 C -280.54463900866 -221.31792081419 -275.14232531571 -220.21036090244 -269.68721975702 -216.51857810678 Z M -277.21668428178 -204.97896356517 C -282.90228725844 -208.82673718317 -288.01562182767 -207.39560601946 -292.55668798946 -200.68557007403 L -300.486221459 -188.96861799374 L -282.93000145674 -177.08731702462 L -274.79248022406 -189.11159899554 C -272.67793796552 -192.23611955029 -271.82342792025 -195.16783951313 -272.22895008827 -197.90675888407 C -272.63447225629 -200.64567825501 -274.29705032079 -203.00307981538 -277.21668428178 -204.97896356517 Z M -202.02592403625 -266.74649372838 C -197.4030764702 -261.75496755809 -194.32403276281 -256.45063036229 -192.7887929141 -250.83348214099 C -191.25355306539 -245.21633391969 -191.39389957284 -239.70173396411 -193.20983243643 -234.28968227423 C -195.02576530003 -228.87763058436 -198.38411730633 -223.90220684336 -203.28488845535 -219.36341105123 C -210.81755522143 -212.38711381518 -218.7763190187 -209.13632110645 -227.16117984717 -209.61103292504 C -235.54604067565 -210.08574474364 -243.31067148184 -214.18018905725 -250.45507226575 -221.89436586588 C -257.57846010617 -229.5858539192 -261.00364065715 -237.56224638852 -260.73061391867 -245.82354327386 C -260.4575871802 -254.0848401592 -256.52070729495 -261.73515663511 -248.91997426291 -268.77449270161 C -241.31924123088 -275.81382876811 -233.36321695171 -279.13584621387 -225.05190142543 -278.74054503889 C -216.74058589914 -278.34524386392 -209.06526010275 -274.34722676041 -202.02592403625 -266.74649372838 Z M -212.26989706301 -257.25914974622 C -217.06084817693 -262.43218595907 -222.0421046116 -265.3531020244 -227.21366636704 -266.02189794221 C -232.38522812247 -266.69069386002 -237.18316264384 -264.97632982943 -241.60746993115 -260.87880585042 C -246.09984348441 -256.71824304097 -248.22114142957 -252.04551015893 -247.97136376663 -246.86060720431 C -247.72158610369 -241.67570424969 -245.18020877178 -236.47404591064 -240.3472317709 -231.25563218715 C -235.47222888306 -225.99184095302 -230.37855973031 -223.00643604577 -225.06622431265 -222.29941746538 C -219.75388889498 -221.592398885 -214.93094505314 -223.24562569734 -210.59739278711 -227.25909790242 C -206.10501923385 -231.41966071187 -204.00515318513 -236.10415692453 -204.29779464095 -241.31258654039 C -204.59043609677 -246.52101615625 -207.24780357079 -251.83653722486 -212.26989706301 -257.25914974622 Z M -112.33263094032 -279.65838243708 L -126.76815449077 -272.22855739321 L -151.94670423044 -301.78814342246 C -154.94696733632 -305.25227964099 -157.88798945792 -308.97297765156 -160.76977059524 -312.95023745416 C -159.57576199422 -309.00858148052 -158.70027182491 -305.98986707574 -158.14330008729 -303.89409423981 C -157.58632834967 -301.79832140387 -154.02950155305 -287.69097848166 -147.47281969741 -261.57206547315 L -161.90834324786 -254.14224042929 L -206.79039620677 -304.54974383402 L -194.45833465939 -310.89693722864 L -166.72694153308 -277.69510259447 L -160.15952555316 -269.59783622567 C -161.35676559446 -273.81607027279 -162.48617751413 -277.8518388133 -163.54776131215 -281.7051418472 C -164.60934511017 -285.55844488109 -167.98381825504 -298.85535936263 -173.67118074675 -321.5958852918 L -160.06054425632 -328.60114890459 L -136.79799575667 -301.44648089023 C -135.03180280763 -299.43399012391 -131.36679738977 -294.71210310386 -125.80297950309 -287.28081983007 L -127.23432697832 -292.59586656707 L -129.93083272665 -303.20715554972 L -139.56210081469 -339.15150046688 L -127.23003926731 -345.4986938615 L -112.33263094032 -279.65838243708 Z M -90.25238515795 -287.31328143013 L -104.46652692694 -351.10781291117 L -54.30020976512 -362.2854346855 L -52.00012152997 -351.96240191213 L -88.80988312975 -343.76077149469 L -85.23869350149 -327.73290482025 L -51.19079593318 -335.31916075373 L -48.89070769803 -324.99612798036 L -82.93860526634 -317.40987204688 L -79.19591783107 -300.61230556038 L -40.52982139047 -309.22754833591 L -38.22973315532 -298.90451556254 L -90.25238515795 -287.31328143013 Z M 16.93950888463 -300.0008201567 L 1.76985084267 -324.81698057232 L -14.27995382603 -324.81620383241 L -14.27875279756 -299.99930933022 L -27.96283481278 -299.99864708088 L -27.96599789525 -365.35753372309 L 4.6902520665 -365.35911414187 C 12.48322080738 -365.35949128726 18.49811318927 -363.68212938482 22.73492921219 -360.32702843456 C 26.9717452351 -356.97192748429 29.09030515234 -352.15554237742 29.09060896391 -345.87787311394 C 29.09083046199 -341.30105020263 27.79219353027 -337.35038513615 25.19469816875 -334.0258779145 C 22.59720280723 -330.70137069285 19.08738031099 -328.51329392928 14.66523068003 -327.4616476238 L 32.3398994916 -300.00156546783 L 16.93950888463 -300.0008201567 Z M 15.31378045025 -345.32056575042 C 15.31347663868 -351.5982350139 11.29314244594 -354.73687508651 3.25277787202 -354.73648596825 L -14.28140179494 -354.73563739112 L -14.28046791112 -335.43876241372 L 3.62480550541 -335.43962895015 C 7.45944091759 -335.43981452963 10.36630005081 -336.3058406265 12.34538290507 -338.03770724076 C 14.32446575933 -339.76957385503 15.31393160773 -342.19719335824 15.31378045025 -345.32056575042 Z M 40.76429371399 -298.33574010342 L 54.96849534701 -362.13248554613 L 105.1365535092 -350.96268042946 L 102.83807375595 -340.6392893997 L 66.02703468929 -348.83518430931 L 62.45834244082 -332.80676139468 L 96.50742162672 -325.22581062957 L 94.20894187347 -314.90241959981 L 60.15986268757 -322.48337036491 L 56.41979256277 -305.68522092613 L 95.08723089355 -297.07600290299 L 92.7887511403 -286.75261187322 L 40.76429371399 -298.33574010342 Z M 169.21463759391 -288.65253957693 C 166.34248545206 -282.55343670084 162.63990016334 -277.79394212235 158.10688172776 -274.37405584145 C 153.57386329218 -270.95416956056 148.55158644983 -269.07213688538 143.04005120072 -268.72795781591 C 137.5285159516 -268.38377874645 131.94701717803 -269.54236520404 126.29555488001 -272.2037171887 L 102.37476148986 -283.46835058909 L 130.22014475503 -342.59887319738 L 151.62295989359 -332.51999068124 C 161.58296275546 -327.82968718353 168.10831682716 -321.68898810918 171.19902210869 -314.09789345817 C 174.28972739022 -306.50679880717 173.6282658853 -298.02501418009 169.21463759391 -288.65253957693 Z M 156.75064524852 -294.52200645397 C 159.7413724788 -300.87290715522 160.37326829938 -306.49734086922 158.64633271027 -311.39530759596 C 156.91939712116 -316.29327432271 152.99238912049 -320.18492126192 146.86530870828 -323.0702484136 L 138.09435113189 -327.20061399375 L 119.26067458702 -287.20672609758 L 129.75225063534 -282.2660974132 C 135.06798249981 -279.76284554644 140.15555359881 -279.6059476793 145.01496393231 -281.79540381178 C 149.87437426582 -283.98485994425 153.78626803789 -288.22706082499 156.75064524852 -294.52200645397 Z M 240.35818146358 -211.33078539339 C 236.28535091667 -207.01037365535 231.51511663878 -205.1961166568 226.04747862991 -205.88801439774 C 220.57984062104 -206.57991213868 214.96574712458 -209.64108137376 209.20519814053 -215.07152210296 L 185.40918036461 -237.50390909959 L 230.24213536922 -285.06219143473 L 252.01296014294 -264.53894375696 C 257.81851341593 -259.06607770956 261.26279062883 -253.9173350556 262.34579178166 -249.09271579508 C 263.42879293448 -244.26809653456 262.11418583978 -239.88684926327 258.40197049755 -235.9489739812 C 255.85645140573 -233.24871664493 252.96047336842 -231.67569543247 249.71403638561 -231.22991034383 C 246.4675994028 -230.78412525519 243.00665153058 -231.67741243476 239.33119276894 -233.90977188255 C 242.75480629117 -229.83236428734 244.54553018171 -225.85992517455 244.70336444056 -221.99245454421 C 244.86119869942 -218.12498391386 243.41280437375 -214.57109419692 240.35818146358 -211.33078539339 Z M 247.10450559072 -244.04908494143 C 249.11970820507 -246.18678866598 249.87087282403 -248.34736635536 249.3579994476 -250.53081800958 C 248.84512607117 -252.7142696638 247.24981178705 -255.06814870726 244.57205659524 -257.59245513998 L 233.23097578289 -268.28363532561 L 222.12614874484 -256.50376269611 L 233.5347359906 -245.74894453319 C 236.34750404922 -243.09736214588 238.85094899517 -241.66173497489 241.04507082845 -241.44206302023 C 243.23919266173 -241.22239106556 245.25900424915 -242.09139837263 247.10450559072 -244.04908494143 Z M 231.09906605826 -221.52553001729 C 235.29917255975 -225.98095462215 234.20392129591 -231.22086451656 227.81331226673 -237.24525970052 L 215.18960921964 -249.14556145476 L 202.33473780597 -235.50926190657 L 215.32972623679 -223.25895127721 C 218.52503075138 -220.24675368523 221.40585421182 -218.62537052383 223.97219661811 -218.39480179304 C 226.5385390244 -218.16423306224 228.91416217111 -219.20780913699 231.09906605826 -221.52553001729 Z M 274.68180473866 -177.2744111597 L 252.47722014061 -162.24729527316 L 244.83366984538 -173.54166875383 L 267.03825444343 -188.56878464037 L 285.91091469592 -229.45846417314 L 293.94444204703 -217.58784714754 L 279.83584818753 -189.1080709148 L 311.62340191355 -191.46480644395 L 319.65692926466 -179.59418941834 L 274.68180473866 -177.2744111597 Z"/>
   </g>
   <g filter="url(#a)">
    <g transform="rotate(180,534.77819,442.63048)matrix(0.9191353392552344 0.3939419095909511 -0.3939419095909511 0.9191353392552344 535.0167054793012 443.0018443851766)">
     <use xlink:href="#PoweredByAbove"/>
    </g>
   </g>
  </g>
 </switch>
<script xmlns=""/></svg>