<?xml version="1.0" encoding="UTF-8" standalone="no"?>
<svg
   xmlns:dc="http://purl.org/dc/elements/1.1/"
   xmlns:cc="http://creativecommons.org/ns#"
   xmlns:rdf="http://www.w3.org/1999/02/22-rdf-syntax-ns#"
   xmlns:svg="http://www.w3.org/2000/svg"
   xmlns="http://www.w3.org/2000/svg"
   id="SVGRoot"
   version="1.1"
   viewBox="0 0 64 64"
   height="64px"
   width="64px">
  <defs
     id="defs1366" />
  <metadata
     id="metadata1369">
    <rdf:RDF>
      <cc:Work
         rdf:about="">
        <dc:format>image/svg+xml</dc:format>
        <dc:type
           rdf:resource="http://purl.org/dc/dcmitype/StillImage" />
        <dc:title></dc:title>
      </cc:Work>
    </rdf:RDF>
  </metadata>
  <g
     id="layer1">
    <path
       id="rect2269"
       d="m 27.315418,5.0000001e-7 h 9.369164 C 52.256134,5.0000001e-7 64.792076,12.535943 64.792076,28.107495 v 36.249626 c -24.169325,0.107451 -41.259746,0.190389 -65.58415203,0 V 28.107495 C -0.79207602,12.535943 11.743866,5.0000001e-7 27.315418,5.0000001e-7 Z"
       style="opacity:1;fill:#bbbbbb;fill-opacity:1;stroke:#ffffff;stroke-width:0;stroke-miterlimit:4;stroke-dasharray:none;stroke-dashoffset:0;stroke-opacity:1" />
    <g
       transform="matrix(0.97484151,0,0,0.97484151,0.80507119,0.89627985)"
       id="text1992"
       style="font-style:normal;font-variant:normal;font-weight:normal;font-stretch:normal;font-size:73.33333588px;line-height:1.25;font-family:nasin-nanpa;-inkscape-font-specification:nasin-nanpa;letter-spacing:0px;word-spacing:0px;fill:#343434;fill-opacity:1;stroke:none;stroke-width:1.02580774"
       aria-label="ma">
      <path
         id="path2125"
         style="font-size:50.66666794px;fill:#343434;fill-opacity:1;stroke-width:1.02580774"
         d="M 29.575633,8.2554984 V 22.607752 H 15.223379 C 16.290101,15.189189 22.157069,9.3222199 29.575633,8.2554984 Z M 34.424367,22.607752 V 8.2554984 C 41.842931,9.3222199 47.709899,15.189189 48.776621,22.607752 Z M 29.575633,41.808741 C 22.157069,40.742019 16.290101,34.87505 15.223379,27.456487 h 14.352254 z m 4.848734,0 V 27.456487 H 48.776621 C 47.709899,34.87505 41.842931,40.742019 34.424367,41.808741 Z M 32,46.851425 c 12.073349,0 21.819306,-9.745956 21.819306,-21.819306 C 53.819306,12.958771 44.073349,3.2128145 32,3.2128145 c -12.073348,0 -21.819305,9.7459565 -21.819305,21.8193045 0,12.07335 9.745957,21.819306 21.819305,21.819306 z" />
    </g>
    <g
       transform="matrix(0.97484151,0,0,0.97484151,0.80507168,1.7579261)"
       id="text1999"
       style="font-style:normal;font-variant:normal;font-weight:normal;font-stretch:normal;font-size:40px;line-height:1.25;font-family:nasin-nanpa;-inkscape-font-specification:nasin-nanpa;letter-spacing:0px;word-spacing:0px;fill:#343434;fill-opacity:1;stroke:none;stroke-width:1.02580774"
       aria-label="anpa">
      <path
         id="path2007"
         style="font-size:50.66666794px;fill:#343434;fill-opacity:1;stroke-width:1.02580774"
         d="m 35.636551,59.210997 c 0,-1.987981 -1.64857,-3.636551 -3.636551,-3.636551 -1.987981,0 -3.636551,1.64857 -3.636551,3.636551 0,1.987982 1.64857,3.636551 3.636551,3.636551 1.987981,0 3.636551,-1.648569 3.636551,-3.636551 z M 5.4595588,31.841168 c -1.3576449,0 -2.4243668,1.066721 -2.4243668,2.424367 v 16.460177 c 0,1.357646 1.0667219,2.424368 2.4243668,2.424368 H 58.540441 c 1.357645,0 2.424367,-1.066722 2.424367,-2.424368 V 34.265535 c 0,-1.357646 -1.066722,-2.424367 -2.424367,-2.424367 -1.357646,0 -2.424368,1.066721 -2.424368,2.424367 v 14.03581 H 7.8839267 v -14.03581 c 0,-1.357646 -1.0667219,-2.424367 -2.4243679,-2.424367 z" />
    </g>
  </g>
</svg>
