<?xml version="1.0" encoding="UTF-8" standalone="no"?>
<!-- Created with Inkscape (http://www.inkscape.org/) -->

<svg
   version="1.1"
   id="svg2"
   width="675.38129"
   height="676.31866"
   viewBox="0 0 675.38128 676.31869"
   xmlns="http://www.w3.org/2000/svg"
   xmlns:svg="http://www.w3.org/2000/svg">
  <defs
     id="defs6">
    <clipPath
       clipPathUnits="userSpaceOnUse"
       id="clipPath24">
      <path
         d="M 0,0 H 596 V 842 H 0 Z"
         id="path22" />
    </clipPath>
    <clipPath
       clipPathUnits="userSpaceOnUse"
       id="clipPath42">
      <path
         d="M 0,0 H 596 V 842 H 0 Z"
         id="path40" />
    </clipPath>
    <clipPath
       clipPathUnits="userSpaceOnUse"
       id="clipPath60">
      <path
         d="M 0,0 H 596 V 842 H 0 Z"
         id="path58" />
    </clipPath>
    <clipPath
       clipPathUnits="userSpaceOnUse"
       id="clipPath78">
      <path
         d="M 0,0 H 596 V 842 H 0 Z"
         id="path76" />
    </clipPath>
    <clipPath
       clipPathUnits="userSpaceOnUse"
       id="clipPath96">
      <path
         d="M 0,0 H 596 V 842 H 0 Z"
         id="path94" />
    </clipPath>
    <clipPath
       clipPathUnits="userSpaceOnUse"
       id="clipPath114">
      <path
         d="M 0,0 H 596 V 842 H 0 Z"
         id="path112" />
    </clipPath>
    <clipPath
       clipPathUnits="userSpaceOnUse"
       id="clipPath132">
      <path
         d="M 0,0 H 596 V 842 H 0 Z"
         id="path130" />
    </clipPath>
    <clipPath
       clipPathUnits="userSpaceOnUse"
       id="clipPath150">
      <path
         d="M 0,0 H 596 V 842 H 0 Z"
         id="path148" />
    </clipPath>
  </defs>
  <g
     id="g10"
     transform="matrix(1.3333333,0,0,1.3333333,-65.535998,-182.69733)">
    <g
       id="g12">
      <path
         d="m 140.348,137.023 h 324.144 c 50.52,0 91.196,40.672 91.196,91.196 v 324.847 c 0,50.524 -40.676,91.196 -91.196,91.196 H 140.348 c -50.52,0 -91.196,-40.672 -91.196,-91.196 V 228.219 c 0,-50.524 40.676,-91.196 91.196,-91.196 z"
         style="display:inline;fill:#00a8e8;fill-opacity:1;fill-rule:nonzero;stroke:none"
         id="path16" />
      <g
         id="g18">
        <g
           id="g20" />
        <g
           id="g34">
          <g
             clip-path="url(#clipPath24)"
             opacity="0.453865"
             id="g32">
            <g
               id="g30">
              <g
                 id="g28">
                <path
                   d="m 154.969,539.969 h 42.304 c 5.743,0 10.364,4.621 10.364,10.363 v 42.305 c 0,5.742 -4.621,10.363 -10.364,10.363 h -42.304 c -5.742,0 -10.364,-4.621 -10.364,-10.363 v -42.305 c 0,-5.742 4.622,-10.363 10.364,-10.363 z"
                   style="fill:#a6ffff;fill-opacity:1;fill-rule:nonzero;stroke:#a6ffff;stroke-width:6.91473;stroke-linecap:round;stroke-linejoin:miter;stroke-miterlimit:4;stroke-dasharray:none;stroke-opacity:1"
                   id="path26" />
              </g>
            </g>
          </g>
        </g>
      </g>
      <g
         id="g36">
        <g
           id="g38" />
        <g
           id="g52">
          <g
             clip-path="url(#clipPath42)"
             opacity="0.453865"
             id="g50">
            <g
               id="g48">
              <g
                 id="g46">
                <path
                   d="m 239.883,540.68 h 42.301 c 5.742,0 10.363,4.621 10.363,10.363 v 42.301 c 0,5.742 -4.621,10.367 -10.363,10.367 h -42.301 c -5.742,0 -10.367,-4.625 -10.367,-10.367 v -42.301 c 0,-5.742 4.625,-10.363 10.367,-10.363 z"
                   style="fill:#a6ffff;fill-opacity:1;fill-rule:nonzero;stroke:#a6ffff;stroke-width:6.91472;stroke-linecap:round;stroke-linejoin:miter;stroke-miterlimit:4;stroke-dasharray:none;stroke-opacity:1"
                   id="path44" />
              </g>
            </g>
          </g>
        </g>
      </g>
      <g
         id="g54">
        <g
           id="g56" />
        <g
           id="g70">
          <g
             clip-path="url(#clipPath60)"
             opacity="0.453865"
             id="g68">
            <g
               id="g66">
              <g
                 id="g64">
                <path
                   d="m 324.793,540.68 h 42.301 c 5.742,0 10.363,4.621 10.363,10.363 v 42.301 c 0,5.742 -4.621,10.367 -10.363,10.367 h -42.301 c -5.742,0 -10.367,-4.625 -10.367,-10.367 v -42.301 c 0,-5.742 4.625,-10.363 10.367,-10.363 z"
                   style="fill:#a6ffff;fill-opacity:1;fill-rule:nonzero;stroke:#a6ffff;stroke-width:6.91472;stroke-linecap:round;stroke-linejoin:miter;stroke-miterlimit:4;stroke-dasharray:none;stroke-opacity:1"
                   id="path62" />
              </g>
            </g>
          </g>
        </g>
      </g>
      <g
         id="g72">
        <g
           id="g74" />
        <g
           id="g88">
          <g
             clip-path="url(#clipPath78)"
             opacity="0.453865"
             id="g86">
            <g
               id="g84">
              <g
                 id="g82">
                <path
                   d="m 409.703,538.672 h 42.301 c 5.742,0 10.363,4.625 10.363,10.367 v 42.301 c 0,5.742 -4.621,10.363 -10.363,10.363 h -42.301 c -5.742,0 -10.367,-4.621 -10.367,-10.363 v -42.301 c 0,-5.742 4.625,-10.367 10.367,-10.367 z"
                   style="fill:#a6ffff;fill-opacity:1;fill-rule:nonzero;stroke:#a6ffff;stroke-width:6.91472;stroke-linecap:round;stroke-linejoin:miter;stroke-miterlimit:4;stroke-dasharray:none;stroke-opacity:1"
                   id="path80" />
              </g>
            </g>
          </g>
        </g>
      </g>
      <g
         id="g90">
        <g
           id="g92" />
        <g
           id="g106">
          <g
             clip-path="url(#clipPath96)"
             opacity="0.453865"
             id="g104">
            <g
               id="g102">
              <g
                 id="g100">
                <path
                   d="m 152.836,456.824 h 42.301 c 5.742,0 10.363,4.621 10.363,10.364 v 42.3 c 0,5.742 -4.621,10.367 -10.363,10.367 h -42.301 c -5.742,0 -10.367,-4.625 -10.367,-10.367 v -42.3 c 0,-5.743 4.625,-10.364 10.367,-10.364 z"
                   style="fill:#a6ffff;fill-opacity:1;fill-rule:nonzero;stroke:#a6ffff;stroke-width:6.91472;stroke-linecap:round;stroke-linejoin:miter;stroke-miterlimit:4;stroke-dasharray:none;stroke-opacity:1"
                   id="path98" />
              </g>
            </g>
          </g>
        </g>
      </g>
      <g
         id="g108">
        <g
           id="g110" />
        <g
           id="g124">
          <g
             clip-path="url(#clipPath114)"
             opacity="0.453865"
             id="g122">
            <g
               id="g120">
              <g
                 id="g118">
                <path
                   d="m 237.746,457.535 h 42.301 c 5.742,0 10.367,4.621 10.367,10.363 v 42.301 c 0,5.742 -4.625,10.367 -10.367,10.367 h -42.301 c -5.742,0 -10.363,-4.625 -10.363,-10.367 v -42.301 c 0,-5.742 4.621,-10.363 10.363,-10.363 z"
                   style="fill:#a6ffff;fill-opacity:1;fill-rule:nonzero;stroke:#a6ffff;stroke-width:6.91472;stroke-linecap:round;stroke-linejoin:miter;stroke-miterlimit:4;stroke-dasharray:none;stroke-opacity:1"
                   id="path116" />
              </g>
            </g>
          </g>
        </g>
      </g>
      <g
         id="g126">
        <g
           id="g128" />
        <g
           id="g142">
          <g
             clip-path="url(#clipPath132)"
             opacity="0.453865"
             id="g140">
            <g
               id="g138">
              <g
                 id="g136">
                <path
                   d="m 322.656,457.535 h 42.301 c 5.742,0 10.367,4.621 10.367,10.363 v 42.301 c 0,5.742 -4.625,10.364 -10.367,10.364 h -42.301 c -5.742,0 -10.363,-4.622 -10.363,-10.364 v -42.301 c 0,-5.742 4.621,-10.363 10.363,-10.363 z"
                   style="fill:#a6ffff;fill-opacity:1;fill-rule:nonzero;stroke:#a6ffff;stroke-width:6.91472;stroke-linecap:round;stroke-linejoin:miter;stroke-miterlimit:4;stroke-dasharray:none;stroke-opacity:1"
                   id="path134" />
              </g>
            </g>
          </g>
        </g>
      </g>
      <g
         id="g144">
        <g
           id="g146" />
        <g
           id="g160">
          <g
             clip-path="url(#clipPath150)"
             opacity="0.453865"
             id="g158">
            <g
               id="g156">
              <g
                 id="g154">
                <path
                   d="m 407.566,455.527 h 42.301 c 5.742,0 10.367,4.621 10.367,10.364 v 42.3 c 0,5.743 -4.625,10.368 -10.367,10.368 h -42.301 c -5.742,0 -10.363,-4.625 -10.363,-10.368 v -42.3 c 0,-5.743 4.621,-10.364 10.363,-10.364 z"
                   style="fill:#a6ffff;fill-opacity:1;fill-rule:nonzero;stroke:#a6ffff;stroke-width:6.91472;stroke-linecap:round;stroke-linejoin:miter;stroke-miterlimit:4;stroke-dasharray:none;stroke-opacity:1"
                   id="path152" />
              </g>
            </g>
          </g>
        </g>
      </g>
      <g
         id="g162">
        <path
           d="m 119.793,210.684 52.723,104.453 c 0,0 47.254,104.453 129.324,105.449 82.07,0.996 171.101,0 171.101,0 L 367.496,220.633 c 0,0 -44.414,-15.676 -86.547,-1.988 -58.195,18.898 -104.847,98.429 -106.941,100.968 -19.137,23.196 -54.215,102.961 -54.215,102.961"
           style="fill:none;stroke:#ffd000;stroke-width:33.0364;stroke-linecap:butt;stroke-linejoin:miter;stroke-miterlimit:4;stroke-dasharray:none;stroke-opacity:1"
           id="path164" />
      </g>
      <g
         id="g166">
        <path
           d="m 337.133,356.824 c 0,7.574 -6.141,13.715 -13.715,13.715 -7.574,0 -13.719,-6.141 -13.719,-13.715 0,-7.578 6.145,-13.719 13.719,-13.719 7.574,0 13.715,6.141 13.715,13.719 z"
           style="fill:#ffd000;fill-opacity:1;fill-rule:nonzero;stroke:#ffd000;stroke-width:20.3446;stroke-linecap:round;stroke-linejoin:miter;stroke-miterlimit:4;stroke-dasharray:none;stroke-opacity:1"
           id="path168" />
      </g>
      <g
         id="g170"
         style="display:inline">
        <path
           d="m 391.504,357.324 c 0,7.574 -6.145,13.715 -13.719,13.715 -7.574,0 -13.715,-6.141 -13.715,-13.715 0,-7.578 6.141,-13.719 13.715,-13.719 7.574,0 13.719,6.141 13.719,13.719 z"
           style="fill:#ffd000;fill-opacity:1;fill-rule:nonzero;stroke:#ffd000;stroke-width:20.3446;stroke-linecap:round;stroke-linejoin:miter;stroke-miterlimit:4;stroke-dasharray:none;stroke-opacity:1"
           id="path172" />
      </g>
    </g>
  </g>
</svg>
